<svg xmlns="http://www.w3.org/2000/svg" width="200" height="200"><path d="M0 0h200v200H0z" fill="#5262ba"/><path d="M0 195h200v5H0z" fill="#fdfefd"/><path d="M0 0h200v5H0z" fill="#fefefd"/><path d="m78 84 2.438.5c2.539.766 2.539.766 4.562-.5l3 1v2h-4v3h3v3l3.176-.105q2.069-.043 4.136-.082l2.092-.077c2.82-.04 5.052-.03 7.565 1.326 1.611 3.028 1.312 5.735 1.219 9.126l-.083 3.855L105 110h-6l-1-10h-3l-1 11h-8c-.996-5.73-1.08-11.183-1-17l-1 17h-8V93l2-1-2-2c.556-4.556.556-4.556 2-6" fill="#e8e9ef"/><path d="m139.688 92.813 2.126.04c1.73.036 3.458.09 5.186.147v6h-3l-2 5-7 1v2l3.25-.125c3.407.114 4.957.338 7.75 2.125.364 4.49.364 4.49-1.25 6.75-3.88 2.772-8.102 2.576-12.75 2.25-2.937-1.5-2.937-1.5-5-3a85 85 0 0 1 2-7c.648-2.57.648-2.57 1-5l-1-1c-.457-5.257-.457-5.257 1.035-7.684 3.028-2.028 6.144-1.631 9.653-1.504" fill="#efeff0"/><path d="m43.938 86.813 2.652-.043C49 87 49 87 52 89l-1 5c-3.468 1.156-6.366 1-10 1-1.344 1.118-1.344 1.118-1.125 4-.219 2.882-.219 2.882 1.125 4 1.686.072 3.375.084 5.063.063l2.785-.028L51 103l2 6c-4.33 2.165-8.249 2.626-13 2-3.746-1.665-5.817-3.564-8-7-.805-4.065-.953-8.24 1.055-11.95 3.426-4.185 5.65-5.2 10.883-5.237" fill="#ebebef"/><path d="M68 93c3 1.438 3 1.438 5 4 .647 3.121.637 5.878 0 9-1.876 2.502-3.239 3.62-6 5-4.181.394-6.31.45-9.875-1.875-2.512-2.512-3.047-3.419-3.437-6.937.384-3.919 1.605-5.4 4.312-8.188 3.22-1.61 6.51-1.454 10-1" fill="#efeef1"/><path d="M107 93h7l3 8 3-8h7c-.707 4.379-2.138 8.388-3.75 12.5l-.727 1.973c-1.738 4.435-3.711 7.49-7.523 10.527-3.812-.187-3.812-.187-7-1l1-5h4c-1.877-6.377-3.857-12.707-6-19" fill="#eeeef0"/><path d="m78 84 2.438.5c2.539.766 2.539.766 4.562-.5l3 1v2h-4v3h3v20h7v1h-8c-.996-5.73-1.08-11.183-1-17l-1 17h-8V93l2-1-2-2c.556-4.556.556-4.556 2-6" fill="#6877c3"/><path d="M157 92.438c3.626.28 6.109 1.284 9 3.562 1.528 3.057 1.232 5.63 1 9-1.5 2.438-1.5 2.438-3 4a109 109 0 0 1-7-1l-1-2 4-2v-4l-5-1 .063 3.375C155 106 155 106 154 108l2 1-4 1c-2.468-2.623-3.878-4.363-4.562-7.937 1.007-5.486 3.77-9.395 9.562-9.626" fill="#f2f2f2"/><path d="M68 93v3l-2 1 .563 3.438L67 104l-1 1-3.375-.125c-3.555-.231-3.555-.231-5.562 1.625L56 108c-2.342-3.513-2.496-4.865-2-9 4.184-6.276 6.93-6.114 14-6" fill="#e7e8ee"/><path d="M76 93h7v17h-7z" fill="#eaeaf0"/><path d="m126 96 3 1c1.478 3.917 2.646 7.022 1 11l-1 1.875c-1.253 2.663-1.604 5.222-2 8.125l-4-2v-4l-3 1c1.662-5.857 3.47-11.459 6-17" fill="#5967bf"/><path d="M104 95c1 1 1 1 1.098 4.16l-.035 3.903-.028 3.91L105 110h-6a888 888 0 0 1-.062-5.375l-.036-3.023C99 99 99 99 100 97h-2v-2c2.503-1.251 3.403-.838 6 0" fill="#f4f3f1"/><path d="M145 109h1c.364 4.49.364 4.49-1.25 6.75-3.88 2.772-8.102 2.576-12.75 2.25-2.937-1.5-2.937-1.5-5-3l1-4h3v3l3.938-.375c.73-.07 1.461-.14 2.214-.21L139 113l1-2h5z" fill="#e6e7ef"/><path d="m108 90 7 2-1 2-7-1 1 5h-2l1 16-2-2a90 90 0 0 0-6-1v-1h6a790 790 0 0 0-.375-6.875l-.21-3.867c-.087-3.339-.087-3.339-2.415-5.258-2.57-.648-2.57-.648-5-1v-1l11-1z" fill="#5a66bb"/><path d="M155 99h5l1 5-4 3 6 2-1 2h-7c-1.16-4.256-.762-7.684 0-12" fill="#e1e2ed"/><path d="M157.313 92.625 161 93v1l-3.375.25c-3.603.35-3.603.35-5.062 2.5-.626 2.5-.706 4.682-.563 7.25l2-1 1 3-1 2 2 1-4 1c-2.468-2.623-3.878-4.363-4.562-7.937 1.054-5.743 3.882-9.438 9.875-9.438" fill="#ededee"/><path d="M145 100h3l2 8c-3.796.978-6.5.927-10.312.063l-2.676-.59L135 107v-2l3.313-.812c3.474-1.12 4.382-1.652 6.687-4.188" fill="#5c6abd"/><path d="M72 91c1.976 1.533 2.894 2.409 3.34 4.901-.015.697-.03 1.393-.047 2.11l-.03 2.296c-.024.785-.05 1.571-.076 2.38l-.04 2.417A526 526 0 0 1 75 111l-4-2 1-3c.336-3.041.402-5.963 0-9-2.68-3.298-5.906-3.535-10-4v-1c3.394-.776 6.52-1.366 10-1" fill="#5966bb"/><path d="m130 104 .875 1.875c1.062 2.258 1.062 2.258 3.125 4.125 2.44.243 2.44.243 5.125.125l2.758-.055L144 110l-1.937.313L140 111l-1 3h-8v-3l-2-1a100 100 0 0 1 0-5z" fill="#bdc4dd"/><path d="M147 94v4h-5l1 2h-2v3h-2l-.312-2.375c-.464-2.955-.464-2.955-3.688-4.625 3.9-2.6 7.474-2.15 12-2" fill="#f4f4f2"/><path d="M120 93h7l-1 5h-4l-1-3 1 10-2-1v-3h-2z" fill="#e4e5ed"/><path d="m90 100 .438 1.938c.372 2.037.372 2.037 1.562 3.062l1-4v9h-6q.172-2.22.375-4.437c.07-.824.14-1.648.21-2.497L88 101z" fill="#f4f3f0"/><path d="m135 97 4 1v5h2c1.011-3.05 1.011-3.05 0-6l6 1-3 1-.875 2.5L142 104c-2.625.813-2.625.813-5 1v-3l-3-2z" fill="#b8bcde"/><path d="M78 84c2.625.375 2.625.375 5 1 .043 1.666.04 3.334 0 5-1 1-1 1-3.562 1.063L77 91c-.625-2.375-.625-2.375-1-5z" fill="#eaecf0"/><path d="m126 96 3 1c1.478 3.917 2.646 7.022 1 11a88 88 0 0 1-2 4h-2l.035-2.047.028-2.703.035-2.672c-.005-2.54-.005-2.54-.664-4.781C125 98 125 98 126 96" fill="#6470c0"/><path d="M128 111h3v3h7l-3 1v2c-2.875.125-2.875.125-6 0l-2-2c.375-2.125.375-2.125 1-4" fill="#efeff1"/><path d="m52 89 5 5-2 5h-2l1-4h-2v2l-3-1z" fill="#5b68bf"/><path d="M155 99h5l1 5a88 88 0 0 1-5 1c-1-1-1-1-1.062-3.562z" fill="#5a67bd"/><path d="M108 95h5c.981 3.053.981 4.947 0 8-3-1-3-1-4.187-2.875C108 98 108 98 108 95" fill="#eeeeef"/><path d="m62 99 5 1-1 5-5-1z" fill="#5563ba"/><path d="m36 89 1 3h11v2c-4.408.665-8.549 1-13 1-.625-1.875-.625-1.875-1-4z" fill="#e2e4ed"/><path d="m34 92 5 3-1 5-1-2-3 1c-1-1-1-1-1.125-3.5C33 93 33 93 34 92" fill="#f5f4f2"/><path d="M105 97h1l1 17-2-2a90 90 0 0 0-6-1v-1h6z" fill="#8992cf"/><path d="M107 93h7l2 7-3 1v-6h-6z" fill="#dde1ec"/><path d="m68 101 2 1 1 3h-2l1 4-4 1c-.25-5.625-.25-5.625 2-9" fill="#f4f3f3"/><path d="m141.688 92.938 3.011.027L147 93v1l-3.25.438c-3.52.466-3.52.466-6 1.124C136 96 136 96 133 96v-2c3.15-1.05 5.388-1.101 8.688-1.062" fill="#d6d8e8"/><path d="m63 105 5 1-1 5h-7l4-4z" fill="#e0e2e7"/><path d="M125 100c2 2 2 2 2.125 5.625L127 109h-2c-.879-6.152-.879-6.152-1-8z" fill="#5461b8"/><path d="M73 99h1l1 12-4-2z" fill="#6f7bc4"/><path d="m161 95 4 1-2 2-1 3-6-2c3-2 3-2 5-2z" fill="#e3e4e9"/><path d="M161 93v1l-3.375.313L154 95l-2 3-3-1c3.59-4.786 6.417-4.372 12-4" fill="#dfe3ea"/><path d="m167 91-1 3-3 1q-1.53-1.47-3-3v-1c4.75-1.125 4.75-1.125 7 0" fill="#5a67bf"/></svg>
