<svg xmlns="http://www.w3.org/2000/svg" width="1024" height="1024"><path d="M308 344h127v7l-2.895.297C421.522 352.52 410.615 353.828 403 362c-7.882 11.234-6.333 26.915-6.414 39.984q-.025 2.544-.054 5.087c-.062 6.226-.109 12.453-.157 18.679L396 468h132l-.375-41.125-.103-12.903-.082-7.749q-.027-2.553-.043-5.108c.773-20.641.773-20.641-6.397-39.115-8.503-8.366-22.6-10.186-34-11-1.125-4.75-1.125-4.75 0-7h214c7 56 7 56 7 60h-11l-1.434-3.297C687.89 383.47 678.211 369.268 660 362c-10.984-3.672-21.41-4.145-32.906-4.098l-3.55.003c-4.348.006-8.696.02-13.044.033L581 358v109c37.468 2.578 37.468 2.578 71.195-10.746C658.902 449.26 663.157 439.125 666 430h8v89h-7l-.807-1.617c-1.24-2.467-2.497-4.925-3.755-7.383l-1.268-2.543c-4.401-8.538-9.248-15.163-18.045-19.332l-3.43-1.68c-7.872-3.079-15.233-3.73-23.636-3.64l-3.056.008c-3.188.011-6.377.036-9.566.062q-3.263.016-6.525.027-7.956.034-15.912.098-.035 17.187-.052 34.375-.007 7.983-.023 15.966a9471 9471 0 0 0-.02 15.445q-.003 2.927-.01 5.855c-1.507 26.216-1.507 26.216 8.105 49.359 8.926 5.707 17.85 7.311 28.246 7.3l2.938.014q3.07.008 6.139.002c3.074-.003 6.148.02 9.222.045 19.285.063 39.276-1.004 54.455-14.361l1.95-1.633C703.632 584.762 709.33 569.33 715 555l1.387-3.43c.882-2.185 1.75-4.377 2.613-6.57h10a427 427 0 0 1-2.812 31.527l-.527 4.23q-.545 4.37-1.1 8.739-.709 5.607-1.401 11.217a4649 4649 0 0 1-1.087 8.675l-.516 4.143q-.358 2.868-.725 5.734l-.415 3.293C720 625 720 625 719 626c-2.984.098-5.944.13-8.928.12l-2.873.003q-4.804.001-9.61-.01l-6.857.001q-9.34-.001-18.68-.013-9.75-.007-19.5-.008-16.374-.004-32.749-.018a77113 77113 0 0 0-33.737-.02h-2.099l-10.425-.005Q530.27 626.034 487 626c-1.044-3.133-.934-3.99 0-7l1.709-.304c2.6-.47 5.195-.957 7.791-1.446l2.688-.477c10.098-1.93 16.762-5.334 23-13.71 4.89-8.264 4.961-17.154 5.017-26.496l.03-3.157q.047-5.031.081-10.062l.057-6.234c.068-7.684.128-15.368.19-23.052L528 482H396l.438 48.188.13 15.145.088 9.058q.028 2.997.052 5.993c-.362 22.314-.362 22.314 5.292 43.616l.879 2.184c1.413 2.288 2.672 2.772 5.121 3.816l1.867 1.184c6.653 4.154 13.497 5.409 21.133 6.816 1.337.32 2.672.646 4 1v7H308v-7l1.693-.288c18.107-2.792 18.107-2.792 32.092-13.814 4.463-6.973 5.364-14.395 5.355-22.474l.01-2.65q.01-4.402.011-8.806l.015-6.307q.019-8.577.024-17.152.005-5.36.012-10.718.02-16.771.027-33.542.007-19.352.05-38.705.034-14.961.034-29.924 0-8.934.025-17.868.023-8.409.01-16.818-.002-3.08.013-6.16c.46-18.476.46-18.476-8.293-34.086-8.47-6.878-20.57-8.027-31.078-7.688z" fill="#e8cb79"/><path d="M487 344h214c7 56 7 56 7 60h-11l-1.434-3.297C689.344 386.732 682.517 376.228 670 367l-2-2v-2l-2.371-1.023-3.067-1.352-3.058-1.336C657 358 657 358 656 356l-1.937.625c-3.644.446-6.362-.232-9.88-1.152-2.462-.614-2.462-.614-6.183-.473l1-4 3 1c2.352-.598 4.69-1.259 7-2l-1-3h-22v-1l-138-1v5h8v1h-9c-1.125-4.75-1.125-4.75 0-7" fill="#d0af62"/><path d="M586 347h62v2l2 1c-2.787 2.787-5.154 2.657-9 3l-2-1-1 3 2.563-.625c4-.436 6.62.445 10.437 1.625 2.792.17 2.792.17 5 0l1-2v2l2 1-1 1 2.117.77 2.758 1.043 2.742 1.019C668 362 668 362 670 365c-4.915-.531-9.097-2.107-13.633-3.965-9.271-2.85-18.712-3.35-28.351-3.45-1.182-.018-2.364-.038-3.581-.058-3.728-.059-7.457-.106-11.185-.152q-3.82-.057-7.64-.117A6341 6341 0 0 0 587 357v-2h-2c-.625-1.75-.625-1.75-1-4z" fill="#e6c673"/><path d="M308 344h127v7l-2.895.297C421.221 352.556 411.151 354.069 403 362l-2-1c1.375-2 1.375-2 3-4h2v-2c1.454-.96 1.454-.96 2.938-1.937 3.305-1.774 3.305-1.774 4.062-5.063l-2-1-1 2h-2v-2h-7l-1 2v-2l-3.062.5c-4.88.62-9.233 1.068-13.938-.5l-1 2v-2h-6l-1 2v-2c-6.705-.198-12.652-.308-19 2v-2l-10 1-1 3h-3v-4l-2.117.254-2.758.308-2.742.317C332 348 332 348 330 347q-3.511.421-7 1v4h-15z" fill="#cdab5e"/><path d="M336 355h3v2h2v2h2l2.93 5.176c.964 1.644 2.013 3.238 3.07 4.824a105 105 0 0 1 1.688 6.313l.824 3.363c.584 3.976.169 7.178-1.042 10.996-.697 3.452-.624 6.895-.628 10.402l-.015 2.485q-.022 4.128-.032 8.254l-.03 5.914q-.04 8.032-.068 16.064c-.022 5.595-.05 11.19-.076 16.785q-.074 15.894-.138 31.789-.076 18.093-.16 36.188-.17 37.224-.323 74.447h2l-2 5h-2l1 3c-1.558 6.817-8.335 13.273-14 17-2.812.75-2.812.75-5 1l-1-3 1.758-.848c7.162-3.675 12.09-7.709 15.055-15.34 1.764-5.665 2.334-10.449 2.327-16.388l.01-2.65q.01-4.402.011-8.806l.015-6.307q.019-8.577.024-17.152.005-5.36.012-10.718.02-16.771.027-33.542.007-19.352.05-38.705.034-14.961.034-29.924 0-8.934.025-17.868.023-8.409.01-16.818-.002-3.08.013-6.16c.722-17.383.722-17.383-6.933-32.274l-1.817-1.906L337 358l-2-2z" fill="#d0b164"/><path d="m328 616-1 3-17 3c.987 1.21.987 1.21 2.886 1.098l2.446-.035 2.67-.024 5.586-.078 2.682-.024 2.456-.035c2.274.098 2.274.098 4.382.664 2.099.654 2.099.654 4.892-.566 6.541-.23 6.541-.23 9 1a130 130 0 0 0 6.313.125l3.425.008c2.894-.118 5.442-.53 8.262-1.133a195 195 0 0 1 7 0v2l3.188-1.062c3.83-.943 5.123-.748 8.812.062q2.561.13 5.125.133l2.89.004 2.985-.012 2.984.012 2.891-.004 2.617-.004c2.535-.07 2.535-.07 5.086-.647 3.54-.705 6.98-.287 10.547.018 5.495.539 5.495.539 10.875-.5v2h4v-6h1v7H308v-7q4.155-.755 8.313-1.5l2.38-.434 2.295-.41 2.11-.38C325 616 325 616 328 616" fill="#c6a559"/><path d="M528 480h2c1.291 3.873 1.142 7.534 1.133 11.57l.004 2.682q.001 4.436-.012 8.873l-.004 3.074c-.025 18.353-.257 36.701-.558 55.051l-.06 3.84q-.086 5.4-.187 10.8l-.05 3.28-.06 3.003-.048 2.619C530 587 530 587 529 590l.625 2.375c.51 3.567-.627 4.662-2.625 7.625a259 259 0 0 0-1.937 4.063c-1.587 3.24-3.293 5.562-6.063 7.937l-2-1 1.46-2.195 1.915-2.93 1.898-2.883c4.809-8.333 4.877-17.242 4.932-26.609l.03-3.166q.047-5.153.081-10.307l.063-7.167q.082-9.412.153-18.825.077-9.612.161-19.225.162-18.847.307-37.693" fill="#fbea96"/><path d="m632.57 346.902 2.715.01 2.84.026 2.863.013q3.507.018 7.012.049v2l2 1c-2.787 2.787-5.154 2.657-9 3l-2-1-1 3 2.563-.625c4-.436 6.62.445 10.437 1.625 2.792.17 2.792.17 5 0l1-2v2l2 1-1 1c1.048.38 1.048.38 2.117.77l2.758 1.043 2.742 1.019C668 362 668 362 670 365c-3.992-.432-7.41-1.491-11.125-2.937-12.537-4.627-25.665-4.606-38.875-5.063l1-4 4-1 .375-1.937L626 348c2.4-1.2 3.894-1.115 6.57-1.098" fill="#debd6c"/><path d="M719 545h10a427 427 0 0 1-2.812 31.527l-.527 4.23q-.545 4.37-1.1 8.739-.709 5.607-1.401 11.217a4649 4649 0 0 1-1.087 8.675l-.516 4.143q-.358 2.868-.725 5.734l-.415 3.293C720 625 720 625 719 626a234 234 0 0 1-8.629.098l-2.619-.005c-2.771-.005-5.543-.018-8.314-.03q-2.813-.009-5.624-.014-6.907-.017-13.814-.049v-1l3.176-.184 4.136-.254 2.092-.119c3.068-.192 5.666-.466 8.596-1.443v2q3.188-.212 6.375-.437l3.586-.247c2.954-.127 2.954-.127 5.039-1.316 2.008.281 4.01.61 6 1v-8l-3-1 4-1v-5l-2-1 .621-3.184c1.773-9.022 1.773-9.022 3.004-18.129C722 583 722 583 723 580l-2-1h2l1-19h2v-12l-7-2z" fill="#c9a85d"/><path d="M308 344h127v7l-3-1h2v-5H309c.995 1.216.995 1.216 2.95 1.114l2.523-.016 2.724-.01 2.865-.026 2.877-.013q3.53-.018 7.061-.049c-2.647 1.46-3.894 2-7 2v4h-15z" fill="#b89954"/><path d="M529 377h1c1.096 52.259 1.096 52.259 1.125 70.75l.014 3.479c-.011 6.006-.354 11.815-1.139 17.771l-2-1q-.034-17.576-.052-35.152-.007-8.16-.023-16.32-.016-7.868-.02-15.737-.003-3.009-.01-6.018-.01-4.198-.009-8.398l-.01-2.54c.01-5.72.01-5.72 1.124-6.835" fill="#f9e48f"/><path d="M309 345h125v1l-2.648.025q-12.381.116-24.761.263-6.365.076-12.728.134-6.147.056-12.294.136-2.34.028-4.68.045a977 977 0 0 0-6.577.078l-3.775.04c-3.817.301-6.906 1.11-10.537 2.279v-2l-10 1-1 3h-3v-4l-2.152.254-2.786.308-2.777.317L332 348l-1-1a81 81 0 0 0-4.691-.316l-2.862-.127-3.01-.12-3.021-.13q-3.708-.16-7.416-.307l-1 4z" fill="#eac46b"/><path d="m579 483 2 1v88h-3q-.034-15.1-.052-30.199-.007-7.012-.023-14.023-.016-6.77-.02-13.539-.003-2.58-.01-5.16-.01-3.618-.009-7.238l-.01-2.144c.008-4.004.353-7.77 1.124-11.697l-2-1z" fill="#fae48e"/><path d="m396 480 3 2h-3l.045 3.452q.207 16.112.398 32.223.098 8.283.205 16.566.104 7.995.195 15.989.036 3.049.078 6.098.056 4.272.1 8.546l.04 2.541c.039 4.32-.188 8.329-1.061 12.585-2-2-2-2-2.21-5.916q.015-2.6.059-5.2l.024-2.862c.028-3.134.072-6.267.115-9.4l.069-6.51q.074-6.825.164-13.65c.078-5.848.142-11.695.202-17.542q.07-6.72.152-13.441.039-3.236.073-6.47.05-4.511.115-9.023l.027-2.728c.096-6.144.096-6.144 1.21-7.258" fill="#daba69"/><path d="M578 384h1c2.473 14.466 2.229 28.867 2.125 43.5q-.016 3.72-.027 7.441-.033 9.03-.098 18.059l-2-1c-1.43-8.612-1.137-17.594-1.098-26.3l.005-3.644c.005-3.79.018-7.58.03-11.368q.009-3.886.014-7.772.017-9.457.049-18.916" fill="#f4d983"/><path d="M395 384h1v84h-1l-1-60h-2l.438-1.937c1.044-5.687 1.626-11.278 1.562-17.063 0-4 0-4 1-5" fill="#d5b666"/><path d="M647 623h38l1 2c-5.898 1.285-11.74 1.126-17.742 1.098l-3.405-.005c-3.576-.005-7.152-.018-10.728-.03q-3.645-.009-7.29-.014-8.917-.017-17.835-.049v-1l18-1z" fill="#ddbe6b"/><path d="m671 365 7 4v2c.59.26 1.18.518 1.79.785 7.235 3.976 12.127 12.831 15.21 20.215l-1 2c-2.682-2.431-4.385-5.098-6.25-8.187-3.992-6.363-8.326-11.954-14.187-16.688L671 367z" fill="#d9b767"/><path d="M698 589c.66 1.781.66 1.781 1 4-3.199 5.676-8.898 9.966-15 12v2l-3 1-3-3 1.836-.96c7.201-4.011 12.574-9.021 18.164-15.04" fill="#ddbd6c"/><path d="m714 558 2 2c-.329 2.384-1.14 4.338-2.062 6.563-1.117 2.468-1.117 2.468-.938 5.437-1.187 1.75-1.187 1.75-3 4a904 904 0 0 0-3.816 5.61L705 583h-2a218 218 0 0 1 4.164-9.863l1.211-2.686 1.25-2.764 1.273-2.822q1.55-3.433 3.102-6.865" fill="#d3b163"/><path d="M310 346h20c-4 2-4 2-7 2v4l-13-2z" fill="#c5a357"/><path d="m496 619-2 3 2 2h-7l-1-4v5h25v1h-26c-1.044-3.133-.934-3.99 0-7 3.378-.845 5.675-1.108 9 0" fill="#d4b667"/><path d="M331 346h32c-2.62 1.746-4.038 2.387-7 3v-2l-10 1-1 3h-3v-4l-10 1z" fill="#c19e55"/><path d="M396 580h1l.184 2.598c.499 7.324.499 7.324 1.503 14.59L399 600l-2 2v-2l-2-1 .688-2.312L396 594c-1.354-1.604-1.354-1.604-3-3-.687-2.187-.687-2.187-1-4h2v-3h2z" fill="#d5b667"/><path d="M722 587h1c.205 14.767.205 14.767-1 22l-2 1-2-2c.14-2.155.14-2.155.68-4.79l.566-2.85.629-2.985.605-3.008A925 925 0 0 1 722 587" fill="#d2b162"/><path d="m328 616-1 3-17 3-1-3a3381 3381 0 0 1 7.813-1.5l2.236-.434c3.029-.575 5.86-1.066 8.951-1.066" fill="#ccaa5d"/><path d="M342 605c0 3.872-1.164 4.76-3.687 7.625l-2.075 2.414c-2.477 2.17-4.005 2.633-7.238 2.961l-1-3 1.793-.918c4.826-2.559 8.581-4.989 12.207-9.082" fill="#cdac5e"/><path d="M631 481c6.892 1.203 12.06 3.321 18 7-2.479.89-3.684 1.106-6.219.258l-2.281-1.133c-3.252-1.594-3.252-1.594-6.719-2.57L632 484z" fill="#f0d480"/><path d="m626 348 1 3-2 1zm2 5-3 2 16 1v1h-21l1-4c2.667-1.333 4.167-.671 7 0" fill="#debd6c"/><path d="M526 594h1c.56 5.6-1.078 9.36-4 14-2.25 2.5-2.25 2.5-4 4l-2-1 1.46-2.195 1.915-2.93 1.898-2.883c1.704-2.952 2.769-5.73 3.727-8.992" fill="#f3d981"/><path d="M349 396c1.83 3.658 2.248 4.659 2.195 8.441l-.02 2.518-.05 2.603-.027 2.616q-.027 2.4-.066 4.8A320 320 0 0 0 351 422l-2 2z" fill="#e6c36d"/><path d="M635 467c-3.27 2.18-4.254 2.099-8 2l-1 1c-1.52.072-3.042.084-4.562.063l-2.504-.028L617 470v-2c6.026-1.071 11.89-1.1 18-1" fill="#f2d680"/><path d="m496 619-2 3 2 2h-7v-3l-2-2c3.378-.845 5.675-1.108 9 0" fill="#debd6b"/><path d="M348 371c3.004 4.505 4.2 8.911 3.688 14.25L351 388l-.562 2.375c-.145.536-.29 1.072-.438 1.625-1.147-2.293-1.197-3.8-1.316-6.352l-.127-2.578-.12-2.695-.13-2.719q-.16-3.327-.307-6.656" fill="#dab765"/><path d="m718 546 5 1-1.437 1.25c-1.748 1.957-2.072 3.214-2.563 5.75-1 2-1 2-3 5-1.188-3.43-.802-5.378.438-8.75l.87-2.422z" fill="#cdad5f"/><path d="M649 356v1l-21-1v-1c14.781-1.517 14.781-1.517 21 1" fill="#e8c873"/><path d="M411 613q2.126.682 4.25 1.375l2.39.773c2.226.804 4.27 1.75 6.36 2.852l-5 2-2-2a201 201 0 0 0-6-3z" fill="#d0af60"/><path d="m329 350 1 3 3-1v2h2v2l-12-3v-1z" fill="#c1a056"/><path d="M701 350h1l1 15-2-4h-2l.438-1.562c.72-3.123 1.135-6.264 1.562-9.438" fill="#c3a35b"/><path d="M579 456c2 2 2 2 2.195 4.383l-.07 2.742-.055 2.758L581 468h-2c-.762-4.316-1.16-7.744 0-12" fill="#f8e08a"/><path d="m399 364 2 1-3 8-2-1c.75-5.75.75-5.75 3-8" fill="#d1b062"/><path d="M394 584h2v8l-3-1c-.687-2.062-.687-2.062-1-4h2z" fill="#ddbd6a"/><path d="m702 583 2 3-4 4c0-4 0-4 2-7" fill="#d8b667"/><path d="m632 485 3 1Z" fill="#ecd07e"/><path d="m627 358 3 1Z" fill="#dec06e"/><path d="m703 405 2 1Z" fill="#bd9d58"/><path d="m604 358 2 1Z" fill="#e3c674"/><path d="m593 358 2 1Z" fill="#e7c876"/><path d="m512 357 2 1Z" fill="#e0c574"/></svg>
